<svg t="1753091805043" class="icon" viewBox="0 0 1024 1024" version="1.1" xmlns="http://www.w3.org/2000/svg" p-id="4484" width="200" height="200"><path d="M522.37312 548.47488L476.16 579.95264l44.30848 45.28128H338.5344v-47.58528l102.27712-83.3024 81.57184 54.12864z m99.04128-109.01504v96.52224l-59.1872 43.97056 30.47424 45.28128H762.2656v-43.6224L659.968 392.54016l-38.5536 46.90944z m-65.24928 243.94752l-15.44192 39.4752 57.94816-39.4752H806.0928V305.27488h-79.83104l38.74816-43.6224h55.68512c15.01184 0 29.22496 14.36672 29.22496 29.0816V697.9584c0 14.71488-14.20288 29.0816-29.22496 29.0816H280.08448c-15.03232 0-29.22496-14.36672-29.22496-29.0816v-29.0816l-126.3616-400.1792a26.4192 26.4192 0 0 1 7.2192-28.83584c2.62144-2.3552 5.69344-4.15744 9.03168-5.3248l271.40096-94.54592 38.56384 42.47552-272.91648 93.71648 73.0624 247.2448V290.73408c0-14.71488 14.19264-29.0816 29.22496-29.0816h241.89952l-13.1584 43.6224H294.68672V683.4176h261.4784z m112.4352-438.91712h58.28608l-59.16672-165.4784a27.2384 27.2384 0 0 0-14.15168-15.09376 27.4432 27.4432 0 0 0-20.69504-0.84992L545.26976 93.5936l6.10304 54.28224 74.55744-25.6 42.65984 122.2144z m-286.24896 106.2912c-7.65952 0-15.19616 1.92512-21.9136 5.59104-13.568 7.46496-21.9136 21.248-21.9136 36.16768 0 14.91968 8.3456 28.70272 21.9136 36.17792a45.70112 45.70112 0 0 0 43.83744 0c13.55776-7.4752 21.9136-21.248 21.9136-36.17792 0-14.91968-8.35584-28.70272-21.9136-36.16768a45.70112 45.70112 0 0 0-21.9136-5.60128z" fill="#C9C9C9" p-id="4485"></path><path d="M276.28544 829.80864v129.9456h12.1856V947.4048h32.78848v11.01824h12.67712v-128.6144h-57.6512z m12.1856 105.61536v-93.47072h32.78848v93.48096H288.4608z m-75.91936-124.13952l-0.16384 29.4912h-23.83872v12.15488h23.5008c-1.18784 41.91232-6.43072 78.848-27.72992 100.79232 3.21536 1.9968 7.7824 5.82656 9.80992 8.67328 22.81472-24.4736 28.73344-64.38912 30.2592-109.4656h25.7024c-1.36192 64.04096-2.87744 86.82496-6.43072 91.648-1.52576 2.16064-3.21536 2.82624-5.74464 2.6624-3.05152 0-10.31168 0-18.25792-0.6656 2.19136 3.4816 3.3792 8.8064 3.71712 12.47232 7.60832 0.50176 15.38048 0.6656 20.1216 0 4.89472-0.6656 8.11008-2.16064 11.1616-6.48192 5.23264-7.15776 6.42048-31.4368 7.77216-105.46176v-6.31808h-37.70368l0.33792-29.50144h-12.51328z m260.52608 7.19872c7.7824 6.5024 16.7424 15.64672 20.62336 21.8112l9.63584-6.656c-4.21888-6.16448-13.35296-14.99136-21.12512-21.00224l-9.13408 5.8368z m17.408 47.08352a195.56352 195.56352 0 0 1-18.5856 44.91264c-3.21536-14.6432-5.41696-32.768-6.7584-53.5552h44.288v-10.14784h-44.8a673.95584 673.95584 0 0 1-0.512-37.4784h-12.51328c0 12.86144 0.33792 25.4976 0.84992 37.4784h-41.59488v-14.30528h29.93152v-9.984h-29.93152V808.96h-12.16512v13.52704H366.3872v9.984h32.29696v14.30528h-40.91904v10.1376h95.1808c1.69984 26.44992 4.9152 49.90976 9.97376 67.87072-8.27392 11.64288-17.74592 21.62688-28.5696 29.27616 3.04128 2.16064 6.7584 5.81632 8.96 8.4992 8.96-6.84032 17.08032-15.1552 24.35072-24.29952 6.2464 14.30528 14.70464 22.62016 25.7024 22.62016 11.8272 0 16.05632-7.64928 18.08384-32.60416-3.04128-1.16736-7.44448-3.65568-9.97376-6.48192-1.024 19.456-2.70336 26.94144-6.93248 26.94144-7.2704 0-13.5168-8.15104-18.25792-22.45632 10.98752-17.13152 19.44576-36.7616 25.52832-57.38496l-11.32544-3.328z m-130.84672 68.03456l1.35168 11.64288 43.96032-4.49536v20.79744H416.768v-21.95456l30.7712-3.16416v-10.31168l-30.7712 2.82624V913.3056h26.88v-10.81344h-26.88V889.0368h-11.8272v13.4656H381.44a189.8496 189.8496 0 0 0 10.81344-18.62656h54.94784v-10.31168h-49.8688c2.02752-4.32128 3.8912-8.6528 5.57056-12.97408l-12.50304-3.328a170.8032 170.8032 0 0 1-6.0928 16.30208h-24.00256v10.31168h19.27168c-2.8672 5.65248-5.24288 9.984-6.59456 11.9808-2.70336 4.48512-5.24288 7.81312-7.7824 8.31488 1.536 3.15392 3.21536 8.98048 3.8912 11.4688 1.536-1.3312 6.59456-2.32448 13.70112-2.32448h22.14912v16.62976l-45.312 3.66592z m235.1616-124.48768v29.184h-32.4608c3.21536-7.68 6.0928-15.84128 8.45824-24.17664l-13.18912-2.6624c-6.08256 22.66112-16.56832 44.9536-29.75744 59.09504 3.21536 1.3312 9.472 4.6592 12.1856 6.49216 5.90848-7.14752 11.48928-16.13824 16.55808-26.112h38.20544v9.97376c0 7.65952-0.33792 15.47264-1.6896 23.12192H526.848v12.47232h63.40608c-7.10656 21.6576-24.35072 41.472-65.4336 55.12192 2.70336 2.49856 6.43072 7.8336 7.94624 10.83392 43.28448-14.66368 62.0544-36.47488 69.82656-60.45696 13.18912 30.976 35.50208 51.3024 70.83008 60.28288 1.86368-3.328 5.5808-8.6528 8.45824-11.3152-34.48832-7.66976-56.80128-26.3168-68.46464-54.46656h64.4096v-12.47232h-71.168c1.00352-7.64928 1.34144-15.4624 1.34144-23.12192V850.944h55.62368v-12.6464h-55.62368v-29.17376h-13.18912z m131.5328 30.6688V884.736c0 21.47328-2.2016 51.43552-32.9728 68.9152a52.224 52.224 0 0 1 7.7824 8.47872c32.63488-20.14208 36.352-52.4288 36.352-77.39392V839.7824h-11.1616z m9.13408 88.05376c7.43424 9.48224 16.73216 22.46656 21.2992 30.12608l9.29792-6.49216c-4.56704-7.3216-14.0288-19.80416-21.63712-28.95872l-8.96 5.3248zM701.81888 817.152v101.18144h10.6496v-89.86624h38.5536v89.53856h10.98752V817.152h-60.19072z m90.44992 32.60416h31.62112c-2.87744 25.96864-8.63232 46.61248-16.90624 62.91456-8.97024-14.31552-15.89248-30.79168-20.6336-48.27136 2.02752-4.6592 4.06528-9.64608 5.91872-14.6432z m-1.01376-39.1168c-5.24288 25.64096-14.0288 50.76992-26.20416 67.24608 2.36544 2.49856 6.2464 7.82336 7.7824 10.32192 2.19136-3.16416 4.39296-6.49216 6.58432-10.15808 5.41696 16.65024 12.51328 31.96928 21.2992 45.28128a88.95488 88.95488 0 0 1-33.97632 29.7984c2.53952 1.9968 6.2464 6.31808 7.7824 8.98048 12.84096-6.81984 23.82848-16.31232 33.13664-29.2864 9.6256 12.30848 20.96128 22.12864 34.14016 29.12256 1.86368-2.82624 5.41696-6.99392 8.12032-9.3184-13.86496-6.49216-26.03008-16.97792-36.01408-29.96224 10.31168-18.30912 17.408-42.28096 20.97152-72.9088h12.00128V838.4512h-50.8928c2.70336-8.31488 4.9152-16.7936 6.7584-25.2928l-11.48928-2.51904z" fill="#C9C9C9" p-id="4486"></path></svg>